<svg width="332" height="206" viewBox="0 0 332 206" fill="none" xmlns="http://www.w3.org/2000/svg">
<path d="M183.249 170.067L154.339 150.419L162.791 139.802V42.7397C162.791 39.1921 161.742 36.7088 159.644 35.2898C157.545 33.7288 154.997 32.5226 152 31.6712L192.915 4V141.718L203.995 151.12L183.249 170.067Z" fill="black"/>
<path d="M27.8764 202C20.2329 202 13.6385 199.517 8.09316 194.55C2.69772 189.725 0 183.623 0 176.244C0 169.149 2.47291 163.544 7.41873 159.429C12.5144 155.314 18.5843 152.759 25.6283 151.766C29.6749 146.09 31.9979 139.208 32.5974 131.119C33.1969 123.031 33.4967 114.02 33.4967 104.086V88.9737H22.9306C18.5843 88.9737 15.1372 90.1798 12.5894 92.5922C10.0415 94.8627 9.21721 98.1974 10.1164 102.596C0.981299 102.596 1.27748 89.6021 3.59696 83.0137C5.99493 76.4861 9.96657 71.9452 15.5119 69.3909C18.3595 68.1138 21.282 67.2624 24.2795 66.8367C27.2769 66.2691 30.3493 65.7724 33.4967 65.3467V60.0253C33.4967 54.2072 34.9205 49.8792 37.7681 47.0411C40.7655 44.203 43.8379 41.3649 46.9853 38.5269C52.3807 33.5602 58.0759 28.8065 64.0708 24.2655C61.2232 24.9751 58.3756 25.3298 55.5281 25.3298C51.7812 25.3298 48.3341 24.8332 45.1868 23.8398C42.1893 22.7046 39.1169 21.6403 35.9696 20.647C32.8223 19.5118 29.3752 18.9442 25.6283 18.9442C16.0328 18.9442 14.1828 21.6225 4.4962 28.9484C6.44455 24.4075 9.14227 20.0084 12.5894 15.7513C16.1863 11.4942 20.5326 8.01757 25.6283 5.3214C30.8739 2.48332 36.7939 1.06428 43.3883 1.06428C49.2334 1.06428 54.8536 1.98665 60.2491 3.83141C65.6445 5.53425 71.2648 6.38568 77.1098 6.38568C81.1564 6.38568 84.8283 5.88902 88.1255 4.89569C91.5726 3.90237 94.5701 2.62523 97.1179 1.06428L96.8931 6.59854C95.3944 7.59186 93.8956 8.51424 92.3969 9.36566C90.8982 10.2171 89.3994 11.1395 87.9007 12.1328C86.7017 12.9842 85.4278 13.8356 84.0789 14.687C82.7301 15.5385 81.3812 16.3899 80.0323 17.2413C74.9366 20.9308 70.7402 25.4008 67.443 30.6512C64.1458 35.7598 62.4972 42.9259 62.4972 52.1496V82.1623V122.605C62.4972 128.565 62 131.955 58.5 135C52.7532 140 50.7888 141.864 44.644 145.553L73.5128 138.5V129.103V36.3983L117.126 0C122.372 3.4057 127.842 6.45663 133.537 9.1528C141.611 12.975 150.095 15.6372 158.704 18.1139L137.809 40.2297C131.814 38.6688 126.043 36.6112 120.498 34.0569C114.953 31.5026 109.857 28.6646 105.211 25.5427V64.4953H136.47L118.616 89.3994H105.211V119.838C105.211 119.838 103.637 121.753 100.49 125.585C97.4926 129.274 93.5959 133.957 88.7999 139.633C84.004 145.168 78.9832 150.773 73.7377 156.449C68.4921 162.125 63.6962 166.808 59.3498 170.497C56.802 172.626 53.28 174.4 48.7838 175.819C44.4374 177.238 40.0162 178.018 35.52 178.16H29.0005C26.003 178.16 23.4552 178.87 21.3569 180.289C19.2587 181.708 18.2096 183.623 18.2096 186.036C18.2096 191.461 24.339 198.636 28.3261 201.787C28.1762 201.929 28.0263 202 27.8764 202Z" fill="black"/>
<path d="M256.909 206V150.377L247.773 147.663L256.909 136.454V86.9125C256.909 85.1992 256.826 81.3339 254.5 79.2025C251.371 76.3345 247.328 77.2079 243.631 79.2025L257 67L267.189 58.4283C273.471 62.4261 278.326 67.7089 281.753 74.2767V78.3458L308.738 58L331.653 82.2008V141.739C319.089 148.878 307.238 157.159 296.102 166.583C291.533 163.87 286.75 161.443 281.753 159.301V168.938C281.753 173.079 282.466 176.506 283.894 179.218C285.465 181.931 287.931 182.929 291.5 183.5L256.909 206ZM290.962 78.1317L281.753 85.4133V143.452C289.605 146.451 297.387 149.806 305.097 153.518V89.9108L290.962 78.1317Z" fill="black"/>
<path d="M223.145 50.55L204.941 29.7758L225.501 12L243.705 32.7742L223.145 50.55ZM229.356 169.627L206.5 149.5L211.794 142.856V86.53C208.495 82.2316 205.396 77.7825 201.5 74L222.074 58.6883L238.565 78.1775V142.856L250.5 154.5L229.356 169.627Z" fill="black"/>
</svg>
